
<svg width="500" height="500" viewBox="0 0 500 500" fill="none" xmlns="http://www.w3.org/2000/svg">
<path d="M288.987 316.93C246.643 312.108 228.038 289.955 190.828 245.722C238.382 211.117 262.167 193.798 304.525 198.605C346.932 203.44 386.678 227.968 402.685 269.812C376.35 306.85 331.378 321.707 288.987 316.93ZM195.742 445.303C155.855 442.58 137.327 422.685 100.32 382.85C143.117 348.418 164.508 331.188 204.41 333.853C244.328 336.548 282.79 357.798 299.832 396.293C277.002 432.093 235.675 447.968 195.742 445.303ZM98.411 216.535C119.348 240.29 117.048 261.933 112.463 305.205C65.9885 300.923 42.7357 298.797 21.783 275.042C0.830442 251.242 -7.33779 217.728 7.73119 186.37C43.7372 178.738 77.4585 192.765 98.411 216.535ZM428.833 137.185C390.73 152.042 363.738 141.759 309.705 121.208C331.785 70.9158 342.848 45.7625 380.888 30.8627C418.975 15.9921 465.042 18.8322 500 46.8257C496.965 89.7045 466.873 122.286 428.833 137.185ZM229.307 85.437C242.982 127.223 227.365 154.503 196.148 209.063C137.546 179.992 108.222 165.456 94.5303 123.655C80.8227 81.8248 89.6012 33.6447 127.673 0C179.437 8.17083 215.598 43.5923 229.307 85.437Z" fill="url(#paint0_linear_5_2)"/>
<path d="M94.5303 123.655C108.019 164.844 136.811 179.627 193.707 207.853V207.782C192.612 171.063 150.941 49.3745 126.937 0.757345C89.5542 34.3728 80.9165 82.1307 94.5303 123.655ZM7.02697 188.162C-6.89972 219.01 1.22158 251.693 21.783 275.042C42.7512 298.81 66.004 300.923 112.463 305.205C96.8618 276.993 35.6158 212.165 7.02697 188.162Z" fill="url(#paint1_linear_5_2)"/>
<path d="M304.527 198.605C264.42 194.062 240.73 209.528 197.995 240.537C225.317 242.067 335.478 251.388 402.357 270.205C402.452 270.06 402.592 269.958 402.685 269.812C386.678 227.968 346.932 203.44 304.527 198.605ZM299.768 396.177C282.697 357.768 244.297 336.548 204.41 333.853C165.29 331.247 143.853 347.85 102.73 380.927C146.028 376.485 226.427 368.255 299.768 396.177Z" fill="url(#paint2_linear_5_2)"/>
<path d="M312.522 122.271C364.583 142.065 391.435 151.75 428.817 137.186C466.67 122.359 496.605 90.0103 499.89 47.4667C438.52 58.5503 337.293 107.91 312.522 122.271Z" fill="url(#paint3_linear_5_2)"/>
<path d="M36.0227 499.848C26.8842 498.523 14.6945 487.745 16.1028 479.225C24.6465 427.345 60.8247 302 302.428 118.674C309.595 113.212 317.702 109.076 323.773 115.586C329.892 122.097 322.958 129.423 315.98 135.088C108.05 303.603 73.2178 437.075 65.253 485.59C63.829 494.11 45.1767 501.13 36.0227 499.848Z" fill="url(#paint4_linear_5_2)"/>
<defs>
<linearGradient id="paint0_linear_5_2" x1="410.527" y1="39.8687" x2="148.781" y2="325.707" gradientUnits="userSpaceOnUse">
<stop stop-color="#00D0DC"/>
<stop offset="1" stop-color="#00BDE0"/>
</linearGradient>
<linearGradient id="paint1_linear_5_2" x1="159.06" y1="27.9973" x2="-1.62013" y2="127.447" gradientUnits="userSpaceOnUse">
<stop stop-color="#00D0DC"/>
<stop offset="1" stop-color="#00BDE0"/>
</linearGradient>
<linearGradient id="paint2_linear_5_2" x1="349.01" y1="215.572" x2="240.265" y2="375.615" gradientUnits="userSpaceOnUse">
<stop stop-color="#00D0DC"/>
<stop offset="1" stop-color="#00BDE0"/>
</linearGradient>
<linearGradient id="paint3_linear_5_2" x1="466.362" y1="56.1208" x2="419.138" y2="145.147" gradientUnits="userSpaceOnUse">
<stop stop-color="#00D0DC"/>
<stop offset="1" stop-color="#00BDE0"/>
</linearGradient>
<linearGradient id="paint4_linear_5_2" x1="270.632" y1="146.952" x2="48.9735" y2="319.498" gradientUnits="userSpaceOnUse">
<stop stop-color="#00D0DC"/>
<stop offset="1" stop-color="#00BDE0"/>
</linearGradient>
</defs>
</svg>
